inDegrees=yes
name=ik_coleta2_trike_mov
DataType=double
version=3
OpenSimVersion=4.4-2022-07-23-0e9fedc
endheader
time	hip_flexion_r	knee_angle_r	hip_flexion_l	knee_angle_l	gearToGround_coord_0
37.46238708496094	100.1575536689987	-73.16400137034434	96.22770144245327	-101.4049563163677	-1826.073316681959
37.46738910675049	100.1575536689987	-73.16400137034434	96.22770144245327	-101.4049563163677	-1826.073316681959
37.47246313095093	99.66650947637527	-72.60786202352499	96.64447620316476	-101.9415235469544	-1827.305303893674
37.47740983963013	99.66747652580041	-72.60888755121769	96.64419061724359	-101.9413672349437	-1827.304671658947
37.48039221763611	99.16930516502299	-72.04937384985342	97.10715363923985	-102.4528532692221	-1828.555196060801
37.48739290237427	99.16930516502299	-72.04937384985342	97.10715363923985	-102.4528532692221	-1828.555196060801
37.49539709091187	99.23637991612033	-72.12442749224009	97.08160857304399	-102.3832728721284	-1828.386463848193
37.50238990783691	98.23590975701106	-71.01354587882506	97.98109324239744	-103.4192759574992	-1830.907216388239
37.50744199752808	98.29301762154569	-71.07649312068172	97.99061102154289	-103.3883065821436	-1830.762181793561
37.51539492607117	98.34248793759959	-71.13102594654599	97.99675780224621	-103.3800931810518	-1830.637147968994
37.52142715454102	98.00891617769084	-70.76423702489912	98.23941556088769	-103.6702718646376	-1831.478932760639
37.52546501159668	98.08694624596627	-70.84984835215046	98.24744141505187	-103.656523362011	-1831.282449579794
37.53039288520813	97.58861363145584	-70.30518079832348	98.54643153188992	-104.0924767981632	-1832.543538980816
37.53539085388184	97.6351008956474	-70.35578496572202	98.49814357209188	-104.0767215369622	-1832.425609693142
37.54143810272217	97.17318660394078	-69.85486720620877	98.97727283771844	-104.6520542434261	-1833.597089915937
37.54739499092102	97.21566611099449	-69.9007590894313	98.97103755047613	-104.6563128958482	-1833.489246858783
37.5544159412384	97.25742283481566	-69.94590227439122	98.96986796592249	-104.6572234609804	-1833.383201549736
37.56040215492249	96.77559483196521	-69.42711384503257	99.31607371690146	-104.9715953716326	-1834.61129804148
37.56539511680603	96.78213609614465	-69.43413726871643	99.3130872868738	-104.9725889541004	-1834.59755828211
37.5704300403595	95.19694111216725	-67.76108326141907	100.8506488223421	-106.4317906239679	-1838.661063344977
37.57740783691406	94.3026208200836	-66.84130375499402	101.7907030886343	-107.2768251495962	-1840.987482037141
37.58439803123474	94.3026208200836	-66.84130375499402	101.7907030886343	-107.2768251495962	-1840.987482037141
37.59143996238708	94.3026208200836	-66.84130375499402	101.7907030886343	-107.2768251495962	-1840.987482037141
37.59839296340942	93.71818727849487	-66.25020644099435	102.3418635353765	-107.8106227369782	-1842.524567840277
37.60442209243774	92.64107298178496	-65.18280163975435	103.4403482364985	-108.7859064903081	-1845.395609636958
37.6104109287262	92.64107298178496	-65.18280163975435	103.4403482364985	-108.7859064903081	-1845.395609636958
37.62143993377686	91.37382367484916	-63.96623875169126	104.8341440324832	-109.8862789568717	-1848.837167310275
37.6374409198761	90.87598354097177	-63.5012040141638	105.3189785103384	-110.3993298672768	-1850.225176002361
37.64238500595093	90.8557737068863	-63.73991375078144	105.5337842060059	-110.531738410425	-1850.809703518224
37.64638304710388	90.36213447471803	-63.29205929918293	106.1042481136785	-110.9877490228307	-1852.234849278959
37.65339517593384	90.34979160770558	-63.27966543195695	106.1049690753407	-110.9874201337483	-1852.238067005663
37.66639494895935	89.39960977484921	-62.44054632366896	107.3703782648221	-111.9485117996962	-1855.040985013228
37.67445492744446	88.99423228112352	-62.09283804637734	107.6506442669374	-112.019978961098	-1856.247400226182
37.67838597297668	88.91724105556106	-62.02753218831565	107.7496423936359	-112.0448433811527	-1856.483848518173
37.68239188194275	88.56207722943186	-61.72953232145719	108.1624987294937	-112.3641132169976	-1857.562555262898
37.68741393089294	88.50351003332746	-61.68092906001915	108.2310216817242	-112.3653701617062	-1857.739809679243
37.69240212440491	87.60807336785581	-60.95710127331982	109.3012348176712	-113.0415358138245	-1860.526768210729
37.69638800621033	87.53270475641193	-60.89793355524522	109.3967843154519	-113.0715079942487	-1860.766808745929
37.70239186286926	87.12523249799996	-60.58318354358783	109.9074475601321	-113.3382908384249	-1862.073747920783
37.7064471244812	87.04031781026185	-60.51871836440166	110.0092335768229	-113.3983699094597	-1862.350079921188
37.71339297294617	86.63646911188208	-60.2176632962995	110.5114024679497	-113.6702343409732	-1863.678059807826
37.71739196777344	86.52115441165601	-60.13344181553588	110.6764476810306	-113.7376912519979	-1864.061343954469
37.7224440574646	85.61653180558238	-59.50237232268844	111.7947952594694	-114.3342429347142	-1867.153029783944
37.72640609741211	85.33679972890042	-59.31881459525656	112.1588665638977	-114.4926644356181	-1868.143127438847
37.73037695884705	84.80704644586145	-58.98815542497885	113.1382758782724	-114.9670287555338	-1870.068900882459
37.73539185523987	84.13634571773247	-58.60532885685382	113.7693067283837	-115.1089947213023	-1872.614294430796
37.7404568195343	83.06452531189466	-58.09540600170737	115.5466707480372	-115.7991889165331	-1876.995252156087
37.7453989982605	82.75652636408633	-57.97726848530196	115.7835047275074	-115.6703362935453	-1878.342873906726
37.74939203262329	82.43219940478021	-57.86941403903577	116.1633961283301	-115.771976277398	-1879.815478910235
37.7534167766571	80.94034821465526	-57.67077309125791	118.6216660974969	-116.0099947683225	-1887.555647670244
37.75941705703735	80.66578169994472	-57.70976332250686	118.968278552639	-116.107263271127	-1889.230525127193
37.76539206504822	80.43954189765677	-57.76785544420349	119.2445654894695	-115.914738174915	-1890.698177477653
37.77642583847046	79.91646691910132	-58.02135737124025	120.2159700927392	-115.8259316336056	-1894.496758659508
37.78039503097534	79.77187420245932	-58.13033243138848	120.4149648007211	-115.6626669563815	-1895.679914590609
37.78641080856323	79.34233972594382	-58.61100910870825	121.287807414809	-115.3384355747436	-1899.739142825785
37.7924211025238	79.27491849085978	-58.71637595147278	121.3913849794979	-115.2225065708576	-1900.480595724061
37.79939699172974	78.97517861588524	-59.3594448526859	121.9812334709645	-114.6406907539858	-1904.39183637681
37.80341386795044	78.95374488263707	-59.4214365666633	122.0328844198009	-114.5918681427165	-1904.727761640989
37.80746102333069	78.76490848199404	-60.16137316229767	122.5447887571579	-113.9965368667013	-1908.379656601049
37.8123791217804	78.76476204324291	-60.1621564149982	122.5449994058141	-113.9961853384686	-1908.381516800451
37.81639385223389	78.65623522222775	-61.00135113310145	122.8980600515401	-113.2648881860221	-1911.962081759927
37.81939005851746	78.65618538570045	-61.00153123790012	122.8980664398075	-113.2648680070382	-1911.962153645375
37.82838892936707	78.65618538570045	-61.00153123790012	122.8980664398075	-113.2648680070382	-1911.962153645375
